<svg aria-hidden="true" style="position: absolute; width: 0; height: 0; overflow: hidden;" version="1.1" xmlns="http://www.w3.org/2000/svg" xmlns:xlink="http://www.w3.org/1999/xlink">
<defs>
<symbol id="icon-logo" viewBox="0 0 62 32">
<path fill="#fff" style="fill: var(--color1, #fff)" d="M19.195 24.021c-0.576-1.602-1.762-2.403-3.557-2.404h-0.567v9.881h0.567c1.387 0 2.411-0.547 3.073-1.641 0.557-0.933 0.835-2.121 0.835-3.564-0.002-0.857-0.119-1.614-0.351-2.271zM9.473 24.138c0.576 1.602 1.762 2.403 3.556 2.403h0.568v-9.881h-0.568c-1.387 0-2.411 0.547-3.072 1.641-0.555 0.933-0.833 2.121-0.834 3.564 0 0.857 0.117 1.614 0.35 2.272zM0.044 0.882h7.539v2.617h-4.833v1.308h4.015v2.484h-4.015v1.323h4.833v2.617h-7.539v-10.348zM11.373 0.868h9.755l-4.877 10.571-4.877-10.57zM16.251 10.132l4.029-8.713h-8.043l4.014 8.712zM25.023 0.881h7.539v2.617h-4.832v1.309h4.014v2.482h-4.015v1.323h4.833v2.617h-7.54v-10.347zM37.201 11.214v-10.347h0.58l7.226 7.033v-7.032h0.55v10.348l-8.356-0.002zM53.452 11.229v-7.732h-3.911v-2.617h8.356v2.617h-3.91v7.732h-0.535zM4.49 18.723c0.653 0 1.174 0.099 1.561 0.297 0.87 0.432 1.457 1.314 1.457 2.333 0 0.016-0 0.033-0 0.049l0-0.002c0.003 0.476-0.131 0.942-0.386 1.345-0.262 0.413-0.619 0.743-1.041 0.967l-0.015 0.007c0.537 0.189 1.006 0.53 1.352 0.981 0.361 0.446 0.555 1.003 0.551 1.576 0.003 0.501-0.133 0.993-0.394 1.42-0.259 0.426-0.613 0.77-1.034 1.010l-0.014 0.007c-0.229 0.124-0.475 0.214-0.729 0.268-0.268 0.059-0.625 0.089-1.070 0.089h-4.58v-10.348h4.343zM21.923 28.321c-0.778-0.679-1.162-1.698-1.152-3.055h2.424c-0.010 0.565 0.158 0.996 0.506 1.293 0.346 0.297 0.832 0.446 1.455 0.446 0.516 0 0.923-0.085 1.22-0.253 0.268-0.142 0.447-0.418 0.447-0.737 0-0.013-0-0.026-0.001-0.038l0 0.002c0-0.288-0.151-0.495-0.454-0.625-0.288-0.124-0.589-0.217-0.898-0.276 0.13 0.015-0.057-0.020-0.244-0.054l-0.307-0.046c-0.758-0.142-1.422-0.331-2.059-0.572l0.082 0.027c-0.556-0.21-1.026-0.541-1.394-0.962l-0.003-0.004c-0.377-0.436-0.566-1.012-0.566-1.724 0-0.714 0.189-1.321 0.566-1.822 0.385-0.502 0.896-0.888 1.486-1.115l0.023-0.008c0.594-0.235 1.282-0.372 2.001-0.372 0.020 0 0.041 0 0.061 0l-0.003-0c0.901 0 1.683 0.168 2.341 0.506 0.666 0.347 1.198 0.872 1.544 1.513l0.010 0.019c0.175 0.289 0.291 0.609 0.343 0.943 0.039 0.293 0.059 0.588 0.059 0.885h-2.424c0-0.535-0.143-0.929-0.43-1.182-0.288-0.253-0.733-0.379-1.339-0.379-0.485 0-0.862 0.084-1.129 0.253-0.268 0.168-0.403 0.396-0.403 0.683 0 0.317 0.18 0.55 0.537 0.699 0.38 0.156 0.832 0.295 1.3 0.393l0.052 0.009c0.892 0.178 1.589 0.349 2.089 0.512 0.505 0.166 0.955 0.468 1.301 0.87 0.366 0.416 0.55 1.001 0.55 1.755 0 0.712-0.198 1.327-0.595 1.843-0.396 0.516-0.919 0.91-1.569 1.183-0.608 0.259-1.315 0.409-2.058 0.409-0.016 0-0.032-0-0.049-0l0.002 0c-1.437-0.002-2.545-0.343-3.324-1.022zM35.61 29.071v-7.732h-3.91v-2.617h8.356v2.617h-3.911v7.732h-0.535zM42.866 18.723h7.539v2.617h-4.832v1.309h4.014v2.483h-4.015v1.323h4.833v2.617h-7.539v-10.348zM61.57 29.071h-7.955v-10.348h4.029c0.862 0 1.566 0.154 2.111 0.46 0.521 0.284 0.954 0.706 1.249 1.219 0.299 0.52 0.453 1.111 0.446 1.71 0 0.009 0 0.020 0 0.032 0 0.775-0.269 1.488-0.718 2.050l0.005-0.006c-0.444 0.58-1.062 1.007-1.776 1.205l-0.024 0.006 2.632 3.673zM54.165 19.63v5.337h3.821l-3.821-5.337zM54.165 28.521h6.364l-2.171-3.018-0.46 0.014h-3.733v3.004zM54.552 19.272l4.044 5.651c0.67-0.137 1.241-0.494 1.647-0.991l0.004-0.005c0.429-0.506 0.661-1.15 0.653-1.814 0-0.009 0-0.021 0-0.032 0-0.537-0.149-1.039-0.409-1.467l0.007 0.013c-0.27-0.445-0.655-0.797-1.114-1.019l-0.016-0.007c-0.437-0.219-1.006-0.327-1.71-0.327h-3.107z"></path>
</symbol>
<symbol id="icon-search" viewBox="0 0 32 32">
<path d="M4.024 4.024c2.472-2.486 5.895-4.024 9.677-4.024 0.013 0 0.026 0 0.040 0h-0.002c3.669 0 7.12 1.429 9.715 4.024 2.487 2.473 4.027 5.896 4.027 9.68 0 0.012-0 0.025-0 0.037v-0.002c0 0.010 0 0.023 0 0.035 0 3.453-1.284 6.607-3.4 9.010l0.013-0.015 7.632 7.629c0.17 0.17 0.275 0.405 0.275 0.664 0 0.519-0.42 0.939-0.939 0.939-0.259 0-0.494-0.105-0.664-0.275l-7.629-7.629c-2.387 2.1-5.538 3.381-8.988 3.381-0.014 0-0.029-0-0.043-0h0.002c-0.010 0-0.023 0-0.035 0-3.782 0-7.205-1.538-9.677-4.023l-0.001-0.001c-2.487-2.473-4.027-5.896-4.027-9.68 0-0.012 0-0.025 0-0.037v0.002c0-3.669 1.429-7.12 4.024-9.715zM5.352 22.128c2.148 2.143 5.113 3.468 8.387 3.468s6.239-1.325 8.387-3.468l-0 0c2.144-2.148 3.469-5.113 3.469-8.388s-1.326-6.24-3.47-8.388l0 0c-2.14-2.143-5.099-3.469-8.367-3.469-0.006 0-0.012 0-0.018 0h0.001c-0.006 0-0.014-0-0.021-0-3.267 0-6.225 1.325-8.365 3.467l-0 0c-2.145 2.148-3.471 5.114-3.471 8.389s1.326 6.241 3.471 8.389l-0-0z"></path>
</symbol>
<symbol id="icon-arrow" viewBox="0 0 52 32">
<path fill="#939393" style="fill: var(--color2, #939393)" d="M26 32l-25.98-30h51.96l-25.98 30z"></path>
</symbol>
<symbol id="icon-map-marker" viewBox="0 0 21 32">
<path fill="#fff" style="fill: var(--color1, #fff)" d="M10.667 0c-5.881 0-10.667 4.988-10.667 11.122 0 7.708 10.677 20.878 10.677 20.878s10.656-13.547 10.656-20.878c0-6.133-4.786-11.122-10.667-11.122zM13.884 14.379c-0.889 0.924-2.052 1.387-3.218 1.387-1.266-0.002-2.408-0.534-3.216-1.385l-0.002-0.002c-1.778-1.849-1.778-4.86 0-6.709 0.809-0.854 1.951-1.385 3.218-1.385s2.409 0.531 3.216 1.383l0.002 0.002c1.778 1.849 1.778 4.86 0 6.709z"></path>
</symbol>
<symbol id="icon-barcode" viewBox="0 0 45 32">
<path d="M5.020 1.568h-5.020v30.118h5.020v-30.118zM17.645 1.568h-5.020v30.118h5.020v-30.118zM25.25 1.568h-5.018v30.118h5.018v-30.118zM45.176 1.568h-7.454v30.118h7.454v-30.118zM10.039 1.568h-2.432v30.118h2.432v-30.118zM30.118 1.568h-2.434v30.118h2.434v-30.118zM35.138 1.568h-2.434v30.118h2.434v-30.118z"></path>
</symbol>
<symbol id="icon-close" viewBox="0 0 32 32">
<path d="M1.645 32c-0.001 0-0.001 0-0.002 0-0.909 0-1.645-0.737-1.645-1.645 0-0.455 0.185-0.867 0.484-1.165l28.706-28.706c0.301-0.317 0.725-0.515 1.196-0.515 0.91 0 1.647 0.737 1.647 1.647 0 0.47-0.197 0.894-0.512 1.194l-0.001 0.001-28.706 28.706c-0.299 0.299-0.711 0.484-1.167 0.484h-0z"></path>
<path d="M30.355 32c-0.001 0-0.002 0-0.003 0-0.454 0-0.864-0.185-1.16-0.484l-28.71-28.706c-0.28-0.295-0.452-0.694-0.452-1.133 0-0.91 0.737-1.647 1.647-1.647 0.439 0 0.839 0.172 1.134 0.453l-0.001-0.001 28.706 28.706c0.3 0.298 0.486 0.711 0.486 1.167 0 0.909-0.737 1.645-1.645 1.645v0z"></path>
</symbol>
<symbol id="icon_arrow_forward" viewBox="0 0 24 32">
<path d="M23.656 16.567l-23.11 15.229c-0.461 0.372-0.67 0.221-0.469-0.338l9.508-14.553c0.202-0.559 0.2-1.464-0.004-2.021l-9.5-14.341c-0.204-0.558 0.006-0.711 0.469-0.342l23.102 15.025c0.463 0.369 0.465 0.97 0.004 1.342z"></path>
</symbol>
<symbol id="icon_arrow_back" viewBox="0 0 24 32">
<path d="M0.344 16.567l23.11 15.229c0.461 0.372 0.67 0.221 0.469-0.338l-9.508-14.553c-0.202-0.559-0.2-1.464 0.004-2.021l9.5-14.341c0.204-0.558-0.006-0.711-0.469-0.342l-23.102 15.025c-0.463 0.369-0.465 0.97-0.004 1.342z"></path>
</symbol>
</defs>
</svg>
